<svg width="64" height="64" viewBox="0 0 64 64" fill="none" xmlns="http://www.w3.org/2000/svg">
<path d="M24.4859 9.04741C12.3286 9.81541 2.89309 20.2274 3.00489 32.75C3.12159 45.8364 8.59489 54.9512 16.3237 54.9507C19.4058 54.9043 22.4641 54.4016 25.3989 53.459C25.8804 53.2927 26.394 53.2407 26.8991 53.3072C27.4042 53.3737 27.8869 53.5569 28.3089 53.8423C29.4973 54.7052 30.885 55.253 32.3425 55.4344C33.7999 55.6159 35.2796 55.4251 36.6433 54.8799C38.007 54.3347 39.2104 53.4529 40.1411 52.3168C41.0718 51.1806 41.6995 49.8272 41.9656 48.3828C42.321 46.4471 42.0089 44.4481 41.0804 42.7128L35.0117 27.3677C34.9517 27.216 34.9298 27.052 34.9477 26.8899C34.9657 26.7278 35.023 26.5725 35.1148 26.4376C35.2065 26.3028 35.3298 26.1924 35.474 26.1161C35.6181 26.0398 35.7788 26 35.9419 26H47.0005C47.1469 25.9999 47.2915 25.9676 47.4241 25.9055C47.5567 25.8434 47.674 25.753 47.7679 25.6406C47.8617 25.5282 47.9297 25.3966 47.9671 25.255C48.0045 25.1134 48.0104 24.9654 47.9844 24.8213C45.8405 13.0342 34.6387 8.40281 24.4859 9.04741Z" fill="#4CBB17"/>
<path d="M30 48C32.7614 48 35 45.7614 35 43C35 40.2386 32.7614 38 30 38C27.2386 38 25 40.2386 25 43C25 45.7614 27.2386 48 30 48Z" fill="#EDECEB"/>
<path d="M8.99996 34C8.99742 29.1638 10.1657 24.3988 12.4051 20.1123C14.6444 15.8258 17.8882 12.1451 21.8593 9.38477C16.4708 10.4408 11.6269 13.362 8.17862 17.6352C4.73033 21.9083 2.89828 27.26 3.00436 32.75C3.12106 45.8364 8.59436 54.9512 16.3232 54.9507C16.7048 54.9507 17.0969 54.9148 17.4845 54.8961C12.0365 49.3056 8.99141 41.8059 8.99996 34Z" fill="#339305"/>
<path d="M59.9673 37.0005L45.4995 37.4829L41.1935 26H51.0005V24H47.7891C45.2763 12.8334 34.3936 8.41843 24.4859 9.04743C12.3286 9.81543 2.89309 20.2274 3.00489 32.75C3.12159 45.8364 8.59489 54.9512 16.3237 54.9507C19.4058 54.9043 22.4641 54.4016 25.3989 53.459C25.8804 53.2927 26.394 53.2407 26.8991 53.3072C27.4042 53.3738 27.8869 53.557 28.3089 53.8423C29.2988 54.5633 30.4301 55.0666 31.6283 55.3192C32.8266 55.5718 34.0648 55.5681 35.2615 55.3081C36.9462 54.9627 38.4874 54.1169 39.6835 52.8813C40.8797 51.6457 41.675 50.0778 41.9656 48.3828C41.9882 48.255 42.0004 48.1276 42.0175 48H47.3075L49.3033 53.3218C49.5942 54.1015 50.0758 54.796 50.7041 55.3418C51.3323 55.8875 52.0873 56.2673 52.9 56.4463L55.5738 57.0405C56.2256 57.1853 56.9017 57.1818 57.552 57.0303C58.2023 56.8789 58.8103 56.5834 59.3312 56.1656C59.852 55.7478 60.2724 55.2184 60.5614 54.6164C60.8503 54.0144 61.0003 53.3553 61.0005 52.6875V38C61.0004 37.8659 60.9733 37.7332 60.9209 37.6098C60.8686 37.4864 60.7919 37.3747 60.6955 37.2815C60.5992 37.1883 60.485 37.1154 60.3599 37.0671C60.2348 37.0188 60.1013 36.9962 59.9673 37.0005ZM59.0005 46H55.8551L54.2986 39.19L59.0005 39.0337V46ZM52.2626 39.2582L53.8038 46H48.6938L46.2405 39.459L52.2626 39.2582ZM43.3897 37.5532L39.0967 37.6963L35.0117 27.3677C34.9517 27.2161 34.9298 27.052 34.9477 26.8899C34.9657 26.7278 35.023 26.5725 35.1148 26.4377C35.2065 26.3028 35.3298 26.1924 35.474 26.1161C35.6181 26.0398 35.7788 26 35.9419 26H39.0571L43.3897 37.5532ZM34.8555 53.35C33.9317 53.5521 32.9756 53.5563 32.0501 53.3624C31.1245 53.1685 30.2505 52.7809 29.4855 52.225C28.8104 51.7561 28.0353 51.4511 27.2217 51.334C26.4081 51.217 25.5784 51.2912 24.7985 51.5507C22.0748 52.4278 19.237 52.8995 16.3761 52.9507C9.88289 53.0112 5.10999 44.4907 5.00499 32.7324C4.90249 21.2715 13.515 11.7446 24.6119 11.0435C33.5196 10.4805 43.318 14.2925 45.7619 24H35.9419C35.4527 24.0002 34.971 24.12 34.5387 24.3489C34.1064 24.5778 33.7366 24.9089 33.4615 25.3135C33.1864 25.718 33.0144 26.1836 32.9605 26.6698C32.9065 27.156 32.9722 27.648 33.1519 28.103L36.9738 37.767L29.9668 38.0005V38.0034C28.6412 38.0079 27.3716 38.5388 26.4374 39.4793C25.5032 40.4198 24.9809 41.693 24.9853 43.0186C24.9898 44.3442 25.5207 45.6138 26.4612 46.548C27.4017 47.4822 28.6749 48.0045 30.0005 48H39.9994C39.7954 49.3122 39.1922 50.5297 38.2718 51.4869C37.3515 52.4441 36.1586 53.0947 34.8555 53.35ZM39.2427 43.5028C39.2575 43.5405 39.2746 43.5773 39.294 43.6128C39.6926 44.3538 39.9459 45.164 40.0405 46H33.9749C34.6575 45.1191 35.019 44.0316 34.9998 42.9173C34.9805 41.803 34.5817 40.7286 33.8691 39.8717L37.7554 39.7417L39.2427 43.5028ZM33.0005 43C33.0005 43.5934 32.8245 44.1734 32.4949 44.6667C32.1653 45.1601 31.6967 45.5446 31.1485 45.7717C30.6004 45.9987 29.9972 46.0581 29.4152 45.9424C28.8333 45.8266 28.2987 45.5409 27.8792 45.1214C27.4596 44.7018 27.1739 44.1672 27.0581 43.5853C26.9424 43.0034 27.0018 42.4002 27.2289 41.852C27.4559 41.3038 27.8404 40.8353 28.3338 40.5056C28.8271 40.176 29.4071 40 30.0005 40C30.7959 40.0009 31.5584 40.3173 32.1208 40.8797C32.6833 41.4421 32.9996 42.2047 33.0005 43ZM42.0638 46C41.9601 44.8493 41.6257 43.7312 41.0806 42.7124L39.8779 39.6715L44.1305 39.53L46.5574 46H42.0638ZM53.3338 54.4941C52.8461 54.3867 52.3931 54.1588 52.0161 53.8313C51.6391 53.5038 51.3501 53.087 51.1756 52.6191L49.4436 48H54.2605L55.8742 55.0589L53.3338 54.4941ZM58.0799 54.6055C58.0074 54.6572 57.9321 54.7049 57.8545 54.7485L56.3122 48H59.0005V52.6875C59.0014 53.0559 58.9191 53.4196 58.7598 53.7518C58.6005 54.0839 58.3677 54.3757 58.0799 54.6055Z" fill="black"/>
</svg>
